<svg width="142" height="99" viewBox="0 0 142 99" fill="none" xmlns="http://www.w3.org/2000/svg">
<path d="M8.85804 51.826C7.84461 51.826 7.01543 52.639 6.99995 53.6564C6.99134 54.2173 6.88945 67.4866 15.514 75.7213C20.3241 80.3143 26.8422 82.3886 34.8822 81.8872C35.907 81.8231 36.6858 80.9402 36.622 79.9147C36.5582 78.8891 35.6705 78.1143 34.6512 78.1738C27.6952 78.6071 22.1254 76.8821 18.0968 73.0447C10.6485 65.9509 10.7159 53.8325 10.7175 53.7107C10.7306 52.6847 9.91053 51.8404 8.88483 51.8259C8.87596 51.826 8.86691 51.826 8.85804 51.826Z" fill="#2C3040"/>
<path d="M1.52336 46.3714C2.39763 45.953 3.44338 46.3231 3.86089 47.1987C4.29864 48.116 4.8722 48.8194 5.43233 49.3507C5.46561 49.3139 5.4956 49.2748 5.53017 49.2389C4.98423 47.4267 4.47954 45.0828 4.70137 43.0556C4.80712 42.0924 5.67266 41.3973 6.63495 41.503C7.5973 41.6059 8.29208 42.4743 8.18685 43.4378C8.04886 44.6976 8.34091 46.2849 8.72983 47.6951C8.8129 47.6856 8.89455 47.6721 8.97897 47.6663C8.98372 47.6659 8.98841 47.6662 8.99316 47.6659C9.1345 45.8835 9.48275 43.7886 10.2991 42.1394C10.7292 41.2711 11.7806 40.9164 12.6485 41.3463C13.5153 41.7754 13.8708 42.829 13.4411 43.6974C12.7841 45.024 12.5251 46.9852 12.442 48.6235C12.9129 48.9614 13.314 49.3749 13.6229 49.8479C14.4738 49.4955 15.266 49.0552 15.6892 48.5628C16.3201 47.8286 17.427 47.7444 18.1613 48.3769C18.8955 49.0086 18.9786 50.1163 18.3471 50.8508C17.278 52.0948 15.528 52.9162 14.1012 53.4181C13.5198 55.2001 11.7704 56.5675 9.60957 56.7183C7.00145 56.9002 4.73549 55.2473 4.33924 52.9624C3.16148 52.1464 1.69425 50.8002 0.696944 48.7101C0.279689 47.8362 0.649723 46.7888 1.52336 46.3714Z" fill="#2C3040"/>
<path d="M133.142 51.8244C133.133 51.8244 133.123 51.8244 133.113 51.8244C132.087 51.8403 131.268 52.686 131.283 53.7134C131.285 53.8324 131.352 65.9508 123.904 73.0446C119.876 76.8819 114.305 78.6083 107.35 78.1736C106.325 78.1173 105.443 78.889 105.379 79.9145C105.315 80.9401 106.094 81.8229 107.118 81.887C115.16 82.3912 121.676 80.3137 126.487 75.7211C135.111 67.4864 135.009 54.2171 135.001 53.6562C134.985 52.6387 134.156 51.8244 133.142 51.8244Z" fill="#2C3040"/>
<path d="M140.477 46.3714C139.603 45.953 138.557 46.3231 138.14 47.1987C137.702 48.116 137.128 48.8194 136.568 49.3507C136.535 49.3139 136.505 49.2748 136.471 49.2389C137.016 47.4267 137.521 45.0828 137.299 43.0556C137.194 42.0924 136.328 41.3973 135.366 41.503C134.403 41.6059 133.709 42.4743 133.814 43.4378C133.952 44.6976 133.66 46.2849 133.271 47.6951C133.188 47.6856 133.106 47.6721 133.022 47.6663C133.017 47.6659 133.012 47.6662 133.008 47.6659C132.866 45.8835 132.518 43.7886 131.702 42.1394C131.272 41.2711 130.22 40.9164 129.352 41.3463C128.486 41.7754 128.13 42.829 128.56 43.6974C129.217 45.024 129.476 46.9852 129.559 48.6235C129.088 48.9614 128.687 49.3749 128.378 49.8479C127.527 49.4955 126.735 49.0552 126.312 48.5628C125.681 47.8286 124.574 47.7444 123.839 48.3769C123.105 49.0086 123.022 50.1163 123.654 50.8508C124.723 52.0948 126.473 52.9162 127.9 53.4181C128.481 55.2001 130.23 56.5675 132.391 56.7183C134.999 56.9002 137.265 55.2473 137.662 52.9624C138.839 52.1464 140.307 50.8002 141.304 48.7101C141.721 47.8362 141.351 46.7888 140.477 46.3714Z" fill="#2C3040"/>
<path d="M102.01 51.4664C104.022 51.4664 105.903 52.9414 106.213 54.7608L112.94 94.3101C113.249 96.1296 111.87 97.6045 109.858 97.6045H33.655C31.6432 97.6045 29.7615 96.1296 29.452 94.3101L22.7055 54.6477C22.4222 52.9819 23.7387 51.4663 25.4691 51.4663L102.01 51.4664Z" fill="#252833"/>
<path d="M109.858 99H33.655C30.9526 99 28.5027 97.0429 28.0777 94.544L21.3312 54.8822C21.1297 53.6972 21.461 52.4875 22.2407 51.5633C23.0404 50.6152 24.2172 50.0713 25.4691 50.0713H102.01C104.713 50.0713 107.162 52.0286 107.587 54.5272L114.315 94.0758C114.525 95.3152 114.21 96.5084 113.427 97.4363C112.588 98.43 111.287 99 109.858 99ZM25.4692 52.8617C25.0403 52.8617 24.6402 53.0445 24.3715 53.3631C24.2254 53.5364 23.9933 53.9031 24.0801 54.4138L30.8266 94.0757C31.0234 95.2325 32.3187 96.2094 33.655 96.2094H109.858C110.465 96.2094 110.989 96.0005 111.297 95.6358C111.544 95.3424 111.637 94.9645 111.566 94.544L104.838 54.9952C104.642 53.8386 103.347 52.8617 102.01 52.8617H25.4692Z" fill="#2C3040"/>
<path d="M110.534 92.1015H30.1605C29.6909 87.8869 30.0782 43.0873 30.0782 43.0873L30.0643 11.5818C30.0643 2.62859 24.5049 1.1626 24.5049 1.1626C24.5049 1.1626 85.9912 1.1626 98.9814 1.1626C111.972 1.1626 110.521 11.5818 110.521 11.5818L110.534 92.1015Z" fill="#D1EEFC"/>
<path d="M14.7557 11.0399V8.08596C14.7557 8.08596 15.1986 0.679456 23.6613 1.16227C29.1656 1.47632 30.0512 8.09303 30.0512 8.09303L30.0649 11.865C30.0649 11.865 16.5779 11.865 15.58 11.865C14.5823 11.865 14.7557 11.0399 14.7557 11.0399Z" fill="#98C1D5"/>
<path d="M30.0641 13.0281H15.5793C14.4839 13.0281 13.5928 12.1364 13.5928 11.0404V8.08648C13.5928 7.50125 13.6636 6.93287 13.8029 6.39715C14.3984 4.11038 16.2927 0.239137 22.2913 0.000945211C22.9228 -0.0247062 23.4731 0.474886 23.4983 1.11662C23.5237 1.75836 23.0245 2.29909 22.3834 2.32449C18.9514 2.46072 16.821 4.02809 16.0517 6.98321C15.9618 7.32774 15.9165 7.699 15.9165 8.08641V10.7027H30.0641C30.7058 10.7027 31.2259 11.2232 31.2259 11.8654C31.2259 12.5076 30.7058 13.0281 30.0641 13.0281Z" fill="#2C3040"/>
<path d="M110.535 93.2644H30.1609C29.5191 93.2644 28.999 92.7439 28.999 92.1016C28.999 91.4594 29.5191 90.939 30.1609 90.939H110.535C111.177 90.939 111.697 91.4594 111.697 92.1016C111.697 92.7438 111.177 93.2644 110.535 93.2644Z" fill="#2C3040"/>
<path d="M28.9311 5.55227C27.3063 1.91272 24.5049 1.1626 24.5049 1.1626C24.5049 1.1626 85.9913 1.1626 98.9813 1.1626C104.792 1.1626 107.709 3.2475 109.163 5.55227H28.9311Z" fill="#E9F7FE"/>
<path d="M33.1614 10.9681L33.1514 91.4252H30.1596C30.1519 87.4257 30.0782 43.0873 30.0782 43.0873L30.0643 11.5818C30.0643 2.62859 24.5049 1.1626 24.5049 1.1626C24.5049 1.1626 26.6507 1.1626 30.0253 1.1626C33.5693 4.27407 33.1614 10.9675 33.1614 10.9675V10.9681Z" fill="#98C1D5"/>
<path d="M30.0775 93.264C29.436 93.264 28.9159 92.7436 28.9157 92.1018L28.8882 8.88169C28.8882 5.26645 25.9493 2.32541 22.3369 2.32541V0H99.5344C103.72 0 106.923 1.13451 109.056 3.37184C111.721 6.16843 111.695 9.67971 111.683 10.0901L111.696 92.1014C111.696 92.7431 111.176 93.2641 110.534 93.2641C109.893 93.2641 109.372 92.7436 109.372 92.1014L109.359 10.0421L109.36 10.0144C109.361 9.99126 109.445 7.12897 107.352 4.95349C105.674 3.20964 103.044 2.32541 99.5344 2.32541H28.3182C30.0952 3.95045 31.2119 6.28813 31.2119 8.88124L31.2393 92.1009C31.2396 92.7431 30.7194 93.2641 30.078 93.2641C30.0778 93.264 30.0775 93.264 30.0775 93.264Z" fill="#2C3040"/>
<path d="M110.12 97.6045H33.9169C31.9051 97.6045 30.4848 95.9266 30.7445 93.8569L37.0649 41.8857C37.3245 39.8161 39.1659 38.1382 41.1775 38.1382H58.0715C59.9014 38.1382 61.5491 38.9253 62.6163 40.309L65.7166 45.1219H116.704C118.716 45.1219 120.136 46.7997 119.877 48.8695L114.232 93.857C113.973 95.9266 112.131 97.6045 110.12 97.6045Z" fill="#1A1D1F"/>
<path d="M114.232 93.857L114.674 90.3338L112.018 89.3887C112.018 89.3887 111.708 91.8227 111.223 93.7533H36.0254C35.0498 93.7533 34.419 93.0369 34.544 92.0708C34.544 92.0708 39.7091 50.3389 40.7018 42.0075C40.9602 39.0195 43.1346 38.1382 43.1346 38.1382L41.1777 38.1382C39.1658 38.1382 37.3246 39.8161 37.0649 41.8857L30.7445 93.857C30.4849 95.9268 31.9051 97.6045 33.917 97.6045H110.12C112.131 97.6045 113.973 95.9268 114.232 93.857Z" fill="#33383F"/>
<path d="M114.561 90.766L119.877 48.8699C120.137 46.8002 118.716 45.1222 116.705 45.1222H65.717L62.6166 40.3094C61.5495 38.9256 59.9018 38.1385 58.0719 38.1385H42.7819C41.776 38.1385 40.6585 38.0314 39.9142 38.7096C39.8728 38.7473 39.8317 38.7893 39.7909 38.8352C38.7613 39.9917 39.2777 41.4813 40.635 41.4813H56.9302C57.9382 41.4813 58.79 41.8912 59.2903 42.6171L62.7974 47.453C63.2914 48.1697 64.1325 48.5745 65.1278 48.5745H113.706C114.905 48.5745 115.687 49.4457 115.55 50.6301L110.787 92.1015C110.668 93.1536 110.101 96.2144 112.862 95.7574C114.199 95.536 114.391 92.1234 114.561 90.766Z" fill="#252833"/>
<path d="M110.12 99.0003H33.9167C32.5622 99.0003 31.3393 98.4593 30.4736 97.4774C29.5897 96.4745 29.1841 95.0921 29.3609 93.6836L35.6805 41.7178C36.0307 38.9262 38.4449 36.7437 41.1773 36.7437H58.0712C60.3309 36.7437 62.3896 37.7326 63.7198 39.4572L63.7879 39.5537L66.4762 43.7273H116.704C118.058 43.7273 119.281 44.2683 120.147 45.2502C121.031 46.2528 121.436 47.6356 121.26 49.044L115.616 94.0315C115.266 96.8175 112.852 99.0003 110.12 99.0003ZM41.1774 39.5341C39.8696 39.5341 38.6197 40.6909 38.4479 42.0601L32.1283 94.0261C32.0494 94.6546 32.2046 95.2228 32.5645 95.6311C32.8935 96.0045 33.3737 96.2097 33.9167 96.2097H110.12C111.427 96.2097 112.677 95.0529 112.849 93.6836L118.493 48.6965C118.571 48.0732 118.416 47.505 118.056 47.0964C117.727 46.7233 117.247 46.5178 116.704 46.5178H66.244C65.4375 46.5178 64.7086 46.1335 64.2941 45.4898L61.4786 41.119C60.6794 40.1109 59.4408 39.5341 58.0713 39.5341H41.1774Z" fill="#2C3040"/>
<path d="M97.4361 29.3331C97.5424 28.5691 96.5033 27.7929 95.1152 27.5995C93.727 27.4061 92.5156 27.8687 92.4093 28.6327C92.303 29.3967 93.3421 30.1729 94.7302 30.3663C96.1183 30.5597 97.3298 30.0972 97.4361 29.3331Z" fill="#F062A4"/>
<path d="M57.4785 30.6002C58.8666 30.4068 59.9057 29.6306 59.7994 28.8666C59.6931 28.1025 58.4816 27.64 57.0935 27.8334C55.7054 28.0268 54.6663 28.803 54.7726 29.567C54.8789 30.331 56.0903 30.7936 57.4785 30.6002Z" fill="#F062A4"/>
<path d="M70.575 23.3887C73.3322 20.6294 73.3322 16.1558 70.575 13.3965C67.8177 10.6373 63.3473 10.6373 60.5901 13.3965C57.8328 16.1558 57.8329 20.6294 60.5901 23.3887C63.3474 26.1479 67.8177 26.1479 70.575 23.3887Z" fill="white"/>
<path fill-rule="evenodd" clip-rule="evenodd" d="M70.3363 21.0174C69.6667 20.6079 68.8785 21.0163 68.4707 21.3359C66.85 22.6062 64.9429 22.8272 63.0105 21.5885C62.7296 21.4084 61.6306 20.4968 60.6234 21.2806C60.0888 21.6965 59.7638 22.4206 60.1786 23.1243C61.4689 24.8067 63.1273 25.4582 65.4103 25.4582C67.7977 25.4582 69.9021 24.2685 71.1787 22.4526C71.0951 21.8595 70.8212 21.314 70.3363 21.0174Z" fill="#00BFF3"/>
<path d="M65.5838 26.3877C61.178 26.3877 57.5938 22.801 57.5938 18.3923C57.5938 13.9834 61.178 10.3965 65.5838 10.3965C69.9895 10.3965 73.5738 13.9834 73.5738 18.3923C73.5738 22.801 69.9895 26.3877 65.5838 26.3877ZM65.5838 12.2568C62.2031 12.2568 59.4527 15.0091 59.4527 18.3923C59.4527 21.775 62.2031 24.5273 65.5838 24.5273C68.9645 24.5273 71.7148 21.775 71.7148 18.3923C71.7148 15.0091 68.9645 12.2568 65.5838 12.2568Z" fill="black"/>
<path d="M65.9585 19.2886C66.453 19.0836 66.6879 18.5163 66.483 18.0214C66.2782 17.5265 65.7112 17.2915 65.2167 17.4965C64.7222 17.7015 64.4873 18.2689 64.6922 18.7637C64.897 19.2586 65.464 19.4936 65.9585 19.2886Z" fill="black"/>
<path d="M85.4737 34.9869C84.5631 36.6773 82.5699 37.2084 80.9647 36.283C77.4812 34.2748 73.6077 34.2748 69.9825 36.283C68.3633 37.18 66.384 36.6773 65.4735 34.9869C64.5626 33.2963 65.1262 31.1743 66.6842 30.1605C72.8153 26.1711 80.0342 26.972 84.2629 30.1605C85.7536 31.2844 86.3845 33.2963 85.4737 34.9869Z" fill="black"/>
<path d="M69.8301 30.4724C70.9476 29.7882 72.702 29.2394 75.461 29.2212C78.2769 29.2025 80.0525 29.7504 81.1743 30.4396C78.5163 32.1494 72.4902 32.1526 69.8301 30.4724Z" fill="white"/>
<path d="M91.1844 23.3887C93.9416 20.6294 93.9416 16.1558 91.1844 13.3965C88.4271 10.6373 83.9567 10.6373 81.1995 13.3965C78.4422 16.1558 78.4422 20.6294 81.1995 23.3887C83.9567 26.1479 88.4271 26.1479 91.1844 23.3887Z" fill="white"/>
<path fill-rule="evenodd" clip-rule="evenodd" d="M90.9438 21.0174C90.2742 20.6079 89.4859 21.0163 89.0782 21.3359C87.4574 22.6062 85.5503 22.8272 83.6179 21.5885C83.3371 21.4084 82.2381 20.4968 81.2308 21.2806C80.6962 21.6965 80.3712 22.4206 80.786 23.1243C82.0763 24.8067 83.7347 25.4582 86.0177 25.4582C88.4051 25.4582 90.5095 24.2685 91.7861 22.4526C91.7025 21.8595 91.4287 21.314 90.9438 21.0174Z" fill="#00BFF3"/>
<path d="M86.1922 26.3877C81.7867 26.3877 78.2021 22.801 78.2021 18.3923C78.2021 13.9834 81.7866 10.3965 86.1922 10.3965C90.5978 10.3965 94.1817 13.9834 94.1817 18.3923C94.1818 22.801 90.5977 26.3877 86.1922 26.3877ZM86.1922 12.2568C82.8115 12.2568 80.0611 15.0091 80.0611 18.3923C80.0611 21.775 82.8115 24.5273 86.1922 24.5273C89.5724 24.5273 92.3228 21.775 92.3228 18.3923C92.3228 15.0091 89.5725 12.2568 86.1922 12.2568Z" fill="black"/>
<path d="M86.5669 19.2881C87.0614 19.0832 87.2962 18.5158 87.0914 18.0209C86.8866 17.526 86.3196 17.291 85.8251 17.496C85.3306 17.701 85.0957 18.2684 85.3006 18.7633C85.5054 19.2581 86.0724 19.4931 86.5669 19.2881Z" fill="black"/>
<path d="M74.2438 54.0801C74.3877 53.9396 74.5593 53.8308 74.7476 53.7604C74.9359 53.6899 75.1368 53.6596 75.3375 53.6712C75.5388 53.7003 75.6643 53.5138 75.8677 53.5534C76.051 53.5891 76.2515 53.5336 76.436 53.5663C76.9031 53.6158 77.3591 53.7407 77.7862 53.9361C77.8935 53.9774 77.992 54.0389 78.0762 54.1172C78.2892 54.3209 78.5378 54.4836 78.8096 54.5972C79.128 54.779 79.4147 55.0115 79.6582 55.2856C79.7684 55.418 79.9011 55.5315 80.0228 55.6544C80.1866 55.8198 80.3785 55.971 80.3677 56.2371C80.3634 56.3429 80.4453 56.3823 80.5005 56.4419C80.6485 56.6012 80.8514 56.7261 80.7915 57.0006C80.7823 57.0428 80.8632 57.1051 80.9032 57.1576C81.012 57.2803 81.0809 57.4333 81.1005 57.5962C81.124 57.9042 81.2543 58.2066 81.2767 58.4984C81.299 58.7888 81.451 59.0784 81.3221 59.4033C81.2794 59.5064 81.2627 59.6184 81.2733 59.7294C81.2839 59.8404 81.3215 59.9472 81.3829 60.0403C81.4178 60.0987 81.4333 60.1667 81.4271 60.2344C81.4208 60.3022 81.3933 60.3662 81.3484 60.4173C81.3181 60.4522 81.3179 60.4623 81.3281 60.4931C81.4218 60.7282 81.436 60.9875 81.3684 61.2313L81.3983 61.702C81.4014 61.7352 81.4196 61.7782 81.4053 61.8004C81.2335 62.068 81.4401 62.3302 81.4188 62.5988C81.4064 62.7557 81.252 62.8612 81.3049 63.0215C81.3419 63.1334 81.5054 63.2367 81.3191 63.3572C81.4615 63.4718 81.2508 63.5854 81.3094 63.6763C81.3874 63.7974 81.1147 63.8413 81.2715 63.9746C81.2886 63.9934 81.3018 64.0155 81.3103 64.0395C81.3188 64.0635 81.3224 64.089 81.321 64.1144C81.3196 64.1398 81.3131 64.1647 81.3019 64.1876C81.2908 64.2105 81.2752 64.2309 81.2561 64.2477C81.1504 64.3515 81.2243 64.4764 81.1997 64.5886C81.1538 64.7973 81.0106 65.0128 81.109 65.2139C81.1706 65.3399 81.0964 65.408 81.1051 65.4964C81.1138 65.5857 80.9102 65.6167 81.0649 65.7394C81.181 65.8315 81.0098 65.9045 80.9959 65.9915C80.9818 66.0408 80.982 66.0932 80.9965 66.1425C81.011 66.1918 81.0393 66.2359 81.0779 66.2698C81.1306 66.3145 81.0806 66.3837 81.0414 66.445C80.9869 66.5301 80.9031 66.6875 80.9333 66.7203C81.0664 66.8644 80.7895 66.9047 80.878 67.0167C80.7406 67.0877 80.8356 67.2571 80.762 67.3282C80.6471 67.4391 80.7939 67.5619 80.6972 67.6914C80.6295 67.7821 80.6756 67.9829 80.5746 68.1011C80.5272 68.16 80.4939 68.2289 80.4772 68.3025C80.4604 68.3762 80.4607 68.4528 80.4781 68.5263C80.5049 68.6913 80.3492 68.7813 80.3558 68.9516C80.3638 69.1574 80.232 69.3562 80.2604 69.5832C80.2639 69.6661 80.2474 69.7487 80.2123 69.8239C80.1772 69.8992 80.1246 69.9649 80.0588 70.0155C80.0246 70.0402 79.9969 70.0727 79.9781 70.1104C79.9593 70.1481 79.9499 70.1898 79.9507 70.2319C79.9493 70.451 79.9079 70.6679 79.8285 70.8721C79.7723 70.9967 79.5796 71.0951 79.7409 71.2686C79.6607 71.364 79.5056 71.4185 79.607 71.6049C79.6291 71.6455 79.4435 71.7146 79.435 71.8341C79.3678 71.8799 79.3135 71.9421 79.2772 72.0147C79.2408 72.0874 79.2237 72.1682 79.2273 72.2494C79.0537 72.5452 78.7921 72.802 78.812 73.1838C78.6031 73.4569 78.6109 73.5011 78.259 73.5636C78.0054 73.6087 77.8436 73.7961 77.596 73.8501C77.3526 73.9031 77.152 73.979 76.9592 73.771C76.9475 73.7584 76.9348 73.7358 76.9228 73.736C76.8115 73.7452 76.7 73.7192 76.6042 73.6618C76.5083 73.6043 76.433 73.5181 76.3887 73.4155C76.2791 73.1991 76.0032 73.1611 75.8485 72.9782C75.7579 72.8711 75.6473 72.7819 75.6992 72.6267C75.7554 72.4589 75.5762 72.3506 75.5984 72.205C75.6031 72.0729 75.5649 71.9428 75.4897 71.8341C75.4925 71.7999 75.4831 71.7659 75.4633 71.738C75.4434 71.7101 75.4143 71.6901 75.3812 71.6816C75.345 71.678 75.3102 71.6662 75.2792 71.6472C75.2483 71.6282 75.2221 71.6024 75.2025 71.5717C75.183 71.5411 75.1707 71.5065 75.1665 71.4704C75.1623 71.4343 75.1664 71.3977 75.1784 71.3635C75.1913 71.2895 75.1227 71.2412 75.1123 71.189C74.997 70.7629 74.7687 70.376 74.4514 70.0691C74.5163 69.7207 74.443 69.3608 74.2471 69.0656C74.2215 69.0371 74.2406 68.9676 74.2897 68.932C74.334 68.9 74.3576 68.8523 74.2938 68.8266C74.2431 68.8164 74.191 68.8153 74.1399 68.8232C74.1824 68.5748 74.1304 68.3194 73.9943 68.1074C73.8639 67.9447 74.0064 67.7019 73.8284 67.5548C73.8379 67.0717 73.6034 66.6276 73.6079 66.1399C73.6092 65.9968 73.4877 65.8523 73.6208 65.7084C73.6177 65.6312 73.6311 65.5582 73.5627 65.4884C73.4752 65.3992 73.6757 65.3593 73.6215 65.2609C73.5976 65.2177 73.5762 65.1778 73.517 65.1893C73.506 65.1404 73.5096 65.0894 73.5272 65.0424C73.5448 64.9955 73.5757 64.9547 73.6161 64.9251C73.4467 64.7748 73.476 64.5287 73.3548 64.3659C73.3178 64.3237 73.2924 64.2727 73.2811 64.2177C73.2697 64.1628 73.2727 64.1059 73.2899 64.0525C73.3038 63.8428 73.2599 63.6332 73.163 63.4467C73.101 63.3047 73.0028 63.0939 73.056 63.0297C73.2248 62.826 72.8631 62.7337 72.9978 62.5701C72.8866 62.0425 72.8542 61.5013 72.9017 60.9642C72.9051 60.8373 72.7661 60.7192 72.8516 60.623C72.9869 60.4707 72.7923 60.4221 72.7903 60.3199C72.7896 60.2856 72.8039 60.2419 72.7879 60.2183C72.6777 60.0556 73.0023 59.9653 72.8588 59.8118C72.7313 59.6753 72.8194 59.5191 72.7902 59.3752C72.8441 59.3195 72.8743 59.2451 72.8743 59.1675C72.8743 59.09 72.8441 59.0155 72.7902 58.9599V58.8561C72.7891 58.7925 72.7979 58.7291 72.8164 58.6683C72.8749 58.5892 72.9043 58.4924 72.8995 58.3941C72.8947 58.2959 72.8561 58.2023 72.7902 58.1293C72.7393 57.997 72.879 57.9282 72.894 57.8178C72.9149 57.6577 72.8282 57.4753 72.9919 57.3447C72.7497 57.1448 73.0095 57.0691 73.0877 56.9464C73.1038 56.9212 73.1127 56.8622 73.0993 56.8518C72.9295 56.7204 73.1665 56.5951 73.1016 56.4681C73.0511 56.1472 73.2847 55.8578 73.2054 55.5337C73.4352 55.4755 73.4214 55.2956 73.4131 55.1184C73.4281 55.008 73.5677 54.9392 73.5169 54.8069C73.8002 54.6095 74.0463 54.3634 74.2438 54.0801ZM77.5071 72.8771C77.6215 72.8001 77.5363 72.6813 77.585 72.5899C77.6923 72.3932 77.7889 72.1909 77.8743 71.9838C77.9383 71.8237 77.9569 71.6413 78.1675 71.5939C78.294 71.3717 78.4049 71.1411 78.4995 70.9036C78.4834 70.8198 78.4917 70.7331 78.5235 70.6538C78.5553 70.5746 78.6092 70.5062 78.6789 70.4569C78.7653 70.3786 78.8322 70.2811 78.8741 70.1723C78.9161 70.0635 78.932 69.9464 78.9205 69.8304C78.9183 69.6865 78.8502 69.5168 79.0108 69.403C78.979 69.0949 79.2217 68.8438 79.2145 68.5592C79.2065 68.2438 79.5066 67.9779 79.3345 67.6487C79.3278 67.6359 79.3752 67.5998 79.3885 67.5705C79.4712 67.4304 79.5254 67.2755 79.5482 67.1146C79.5731 66.9373 79.6099 66.7619 79.6584 66.5896C79.7036 66.3644 79.6351 66.1254 79.794 65.9019C79.9368 65.5759 79.9932 65.2184 79.9575 64.8642C79.9573 64.7654 79.968 64.6668 79.9896 64.5703C80.0514 64.2251 80.0693 63.8721 80.1038 63.522C79.9506 63.4126 80.1995 63.3082 80.1229 63.2407C79.9819 63.1164 80.1605 63.0737 80.1751 62.9982C80.1992 62.8736 80.0592 62.8244 80.1036 62.6949C80.1547 62.5718 80.1787 62.4391 80.174 62.3059C80.1694 62.1727 80.1362 62.042 80.0768 61.9227C80.0423 61.8538 80.0258 61.7773 80.0289 61.7004C80.032 61.6234 80.0545 61.5484 80.0943 61.4825C80.1495 61.398 80.173 61.2966 80.1604 61.1965C80.1634 60.695 80.162 60.1936 80.1616 59.6921C80.1616 59.6087 80.1779 59.5254 80.0942 59.4592C80.0196 59.4001 80.1953 59.3446 80.0928 59.23C80.0004 59.1268 79.8656 58.9371 80.0544 58.7621C80.0671 58.7395 80.0738 58.714 80.0738 58.688C80.0738 58.662 80.0671 58.6365 80.0544 58.6139C79.8659 58.4233 80.038 58.1634 79.9418 57.9857C79.8604 57.7749 79.7997 57.5567 79.7605 57.3342C79.7179 57.2029 79.7092 57.1205 79.5693 57.0461C79.495 57.0066 79.4621 56.8014 79.4536 56.6971C79.4525 56.6116 79.4272 56.5282 79.3804 56.4567C79.3337 56.3851 79.2676 56.3283 79.1897 56.2929C78.937 56.2021 78.8533 55.9929 78.7253 55.8082C78.69 55.7574 78.728 55.6621 78.6479 55.6393C78.4217 55.5441 78.2196 55.3996 78.0563 55.2164C77.7055 54.9145 77.2445 54.8017 76.8974 54.5014C76.6624 54.5148 76.4462 54.2869 76.2214 54.401C76.0491 54.4552 75.8711 54.4894 75.6911 54.5031C75.3532 54.5773 75.0483 54.7587 74.822 55.0204C74.7171 55.1548 74.7378 55.3697 74.5595 55.4813C74.2908 55.6494 74.5688 55.8359 74.5555 56.0143C74.5542 56.0315 74.5623 56.0537 74.5542 56.0655C74.413 56.2662 74.3336 56.5039 74.326 56.7493C74.0623 56.9079 74.1312 57.1694 74.1457 57.3981C74.1623 57.6606 74.0396 57.9438 74.2408 58.1842C74.0322 58.4432 74.1761 58.7447 74.1459 59.0249C74.13 59.1728 74.2231 59.3435 74.179 59.4742C74.1559 59.6056 74.1428 59.7386 74.1399 59.872C74.1176 59.9846 74.1961 60.116 74.0821 60.2109C73.8985 60.3635 74.1844 60.4217 74.1467 60.5659C74.0522 60.9271 74.2714 61.2829 74.1924 61.6541C74.1724 61.7584 74.1874 61.8665 74.235 61.9614C74.2973 62.0897 74.174 62.2786 74.3104 62.3941C74.4506 62.5127 74.157 62.613 74.3183 62.7237C74.4536 62.8166 74.1584 62.9439 74.3321 63.0454C74.3135 63.3313 74.5179 63.585 74.4516 63.8779C74.4449 63.92 74.4508 63.9632 74.4685 64.0021C74.4863 64.0409 74.5151 64.0736 74.5514 64.0961C74.584 64.1161 74.6113 64.1435 74.6314 64.1761C74.6514 64.2086 74.6634 64.2454 74.6666 64.2835C74.6698 64.3216 74.664 64.3598 74.6497 64.3953C74.6354 64.4307 74.6129 64.4622 74.5841 64.4874C74.5311 64.5468 74.5495 64.6038 74.5993 64.6649C74.7224 64.816 74.7283 65.0381 74.8945 65.1642C74.9593 65.2134 74.9774 65.251 74.9023 65.3136C74.8724 65.3441 74.8536 65.3837 74.8489 65.4262C74.8442 65.4687 74.8538 65.5115 74.8763 65.5478C74.9316 65.6031 74.9692 65.6736 74.9842 65.7504C74.9993 65.8271 74.9911 65.9066 74.9608 65.9787C74.9252 66.1552 75.0775 66.2492 75.0797 66.4045C75.0827 66.617 74.9954 66.8559 75.1803 67.0339C75.3772 67.2235 75.1948 67.4976 75.3454 67.693C75.4597 67.8413 75.3345 68.0216 75.4156 68.1829C75.6027 68.5551 75.5972 69.0035 75.8615 69.3456C75.8828 69.3717 75.8976 69.4025 75.9046 69.4355C75.9116 69.4685 75.9106 69.5026 75.9017 69.5351C75.8602 69.7 76.0055 69.8046 76.0248 69.9579C76.042 70.0944 76.1022 70.2332 76.1199 70.3829C76.1388 70.5427 76.3523 70.5967 76.3973 70.7318C76.4377 70.8532 76.5558 70.939 76.5336 71.0943C76.523 71.1943 76.5402 71.2953 76.5835 71.3861C76.6268 71.4769 76.6944 71.554 76.7788 71.6087C76.9116 71.707 76.9113 71.8789 77.0317 71.9743C76.8713 72.1536 76.9381 72.2515 77.1478 72.2981C77.0921 72.6029 77.3874 72.6838 77.5071 72.8771Z" fill="#1C1C1C"/>
<path d="M82.6415 80.8664C82.7519 81.1363 82.5178 81.3642 82.5412 81.6434C82.5793 82.0987 82.581 82.1162 82.436 82.3365C82.3578 82.4552 82.4247 82.5697 82.3625 82.6906C82.3149 82.8088 82.2739 82.9295 82.2396 83.0523C82.1853 83.2801 82.0792 83.4923 81.9295 83.6724C81.7798 83.8525 81.5906 83.9957 81.3766 84.0908C80.994 84.3114 80.5601 84.3753 80.1702 84.557C80.0458 84.6149 80.0471 84.495 79.9731 84.4974C79.7315 84.5052 79.4893 84.5081 79.2478 84.4987C78.7077 84.485 78.1743 84.3755 77.6725 84.1753C77.4103 84.014 77.1167 83.9103 76.8113 83.8713C76.7606 83.8719 76.7044 83.7954 76.6585 83.7473C76.3691 83.4444 75.9868 83.2595 75.6834 82.9762C75.5917 82.8906 75.5662 83.1251 75.5021 83.0011C75.4737 82.9463 75.5144 82.8555 75.4855 82.8015C75.3422 82.5519 75.1686 82.3208 74.9687 82.1136C74.9494 82.0922 74.8843 82.082 74.8855 82.0766C74.9748 81.6749 74.4607 81.4746 74.5516 81.0704C74.5735 80.9726 74.462 80.9315 74.4037 80.8764C74.372 80.8472 74.35 80.8089 74.3408 80.7668C74.3316 80.7247 74.3355 80.6807 74.3521 80.6409C74.4569 80.2617 74.5223 79.8726 74.5473 79.48C74.5704 79.3554 74.5959 79.308 74.7189 79.2915C74.7507 79.2872 74.7636 79.1788 74.7942 79.1233C74.8671 78.9423 74.9606 78.7704 75.0729 78.6109C75.2125 78.4506 75.3443 78.2767 75.4869 78.1138C75.6293 77.974 75.7875 77.8514 75.9584 77.7484C76.1058 77.6427 76.2913 77.583 76.3908 77.4187C76.459 77.3062 76.604 77.3468 76.6858 77.2416C76.7624 77.1433 76.8324 77.3707 76.9281 77.2959C77.0099 77.2495 77.1005 77.221 77.1941 77.2123C77.2877 77.2036 77.382 77.2149 77.4709 77.2454C77.6399 77.2676 77.7664 77.1235 77.9644 77.2158C78.1758 77.3143 78.4538 77.1816 78.6945 77.3305C78.8986 77.4567 79.1797 77.3812 79.3822 77.5436C79.8077 77.4169 80.0616 77.8409 80.4378 77.8724C80.5102 78.1741 80.8435 78.1475 81.0222 78.3318C81.2043 78.5196 81.437 78.6648 81.631 78.8519C81.8654 79.0779 81.9477 79.4551 82.3179 79.5448C82.3608 79.6992 82.4198 79.8523 82.4762 79.9977C82.6085 80.2671 82.6656 80.5672 82.6415 80.8664ZM81.1996 82.7353C81.1996 82.6835 81.1772 82.6087 81.2031 82.5833C81.2902 82.4815 81.3536 82.3617 81.389 82.2326C81.4243 82.1034 81.4307 81.9679 81.4076 81.836C81.394 81.768 81.3952 81.6979 81.4111 81.6304C81.5438 81.2902 81.5457 80.9129 81.4163 80.5714C81.3764 80.413 81.3773 80.2697 81.1794 80.2434C81.0817 80.2305 81.0655 80.1249 81.1003 80.0945C81.3575 79.8692 81.0874 79.8612 80.9852 79.7608C80.8405 79.6185 80.6303 79.5763 80.5073 79.4008C80.289 79.1291 79.9846 78.9401 79.6443 78.8651C79.4222 78.8043 79.2069 78.7209 79.0018 78.6162C78.9884 78.6071 78.976 78.5966 78.9649 78.5849C78.8365 78.7548 78.7129 78.5227 78.5826 78.5812C78.4342 78.6478 78.3659 78.4413 78.21 78.4722C78.0555 78.4906 77.8995 78.4924 77.7445 78.4777C77.6261 78.4833 77.5074 78.4758 77.3907 78.4551C77.1976 78.3949 76.9923 78.3853 76.7944 78.4271C76.5965 78.4689 76.4126 78.5609 76.2604 78.6941C76.2104 78.737 76.1187 78.7687 76.1015 78.7957C75.9498 79.0338 75.6842 79.2122 75.695 79.5407C75.693 79.6549 75.6687 79.7675 75.6237 79.8724C75.5923 80.0669 75.5951 80.2654 75.6317 80.459C75.6783 80.7407 75.7421 81.0193 75.8227 81.2932C75.8536 81.5143 75.9127 81.8288 76.2349 81.9044C76.2899 81.9173 76.3081 81.9466 76.3236 82.0047C76.3465 82.0968 76.3901 82.1824 76.4511 82.2551C76.5122 82.3277 76.589 82.3854 76.6758 82.4239C76.7491 82.4663 76.8048 82.5337 76.8329 82.6137C76.8576 82.6833 76.8624 82.738 76.953 82.7364C77.0718 82.7199 77.1926 82.725 77.3096 82.7515C77.3919 82.7831 77.3801 82.9206 77.5211 82.9716C77.7068 83.0143 77.8839 83.0883 78.0447 83.1903C78.2807 83.4058 78.5759 83.3421 78.821 83.4621C79.1214 83.3174 79.4101 83.7303 79.7127 83.4806C80.0402 83.7193 80.2984 83.4677 80.5767 83.3583C80.826 83.4579 80.9435 83.2042 81.1331 83.1391C81.2686 83.0926 81.1756 82.9064 81.1992 82.785C81.2009 82.7685 81.201 82.7518 81.1996 82.7353H81.1996Z" fill="#1C1C1C"/>
<path d="M74.4525 70.0688C74.7697 70.3758 74.9981 70.7627 75.1134 71.1888C75.1237 71.2411 75.1924 71.2893 75.1794 71.3633C75.1674 71.3976 75.1634 71.4341 75.1676 71.4702C75.1718 71.5063 75.1841 71.541 75.2036 71.5716C75.2231 71.6022 75.2493 71.628 75.2803 71.647C75.3112 71.6661 75.3461 71.6778 75.3822 71.6814C75.4154 71.6899 75.4445 71.7099 75.4643 71.7378C75.4842 71.7657 75.4935 71.7998 75.4907 71.8339C75.4568 71.8361 75.4229 71.8358 75.389 71.8332C75.2918 71.8192 75.1752 71.8807 75.1004 71.7993C75.0392 71.7327 74.9652 71.6241 74.98 71.551C75.0391 71.2586 74.8306 71.1265 74.6701 70.9617C74.6044 70.8839 74.5315 70.8125 74.4523 70.7485C74.3325 70.6655 74.4135 70.6151 74.4413 70.5236C74.4664 70.3733 74.4702 70.2202 74.4525 70.0688Z" fill="#C6C7F8"/>
<path d="M77.5078 72.8774C77.388 72.6841 77.0928 72.6032 77.1483 72.2983C76.9386 72.2517 76.8718 72.1538 77.0322 71.9745C76.9118 71.8791 76.9121 71.7073 76.7792 71.6089C76.6948 71.5542 76.6273 71.4772 76.584 71.3864C76.5407 71.2956 76.5234 71.1946 76.5341 71.0946C76.5562 70.9392 76.4381 70.8534 76.3978 70.7321C76.3528 70.5969 76.1393 70.5429 76.1204 70.3831C76.1027 70.2334 76.0425 70.0946 76.0253 69.9581C76.006 69.8048 75.8606 69.7003 75.9022 69.5354C75.9111 69.5029 75.9121 69.4687 75.9051 69.4357C75.8981 69.4027 75.8833 69.3719 75.862 69.3458C75.5977 69.0037 75.6032 68.5553 75.4161 68.1831C75.335 68.0218 75.4601 67.8415 75.3459 67.6933C75.1953 67.4977 75.3777 67.2238 75.1808 67.0341C74.9959 66.8562 75.0832 66.6173 75.0802 66.4047C75.078 66.2494 74.9257 66.1554 74.9613 65.9789C74.9916 65.9068 74.9997 65.8273 74.9847 65.7506C74.9697 65.6739 74.9321 65.6033 74.8768 65.548C74.8543 65.5117 74.8447 65.4689 74.8494 65.4264C74.8541 65.384 74.8729 65.3443 74.9028 65.3138C74.9779 65.2513 74.9598 65.2136 74.895 65.1644C74.7288 65.0383 74.723 64.8162 74.5998 64.6651C74.55 64.604 74.5316 64.547 74.5846 64.4876C74.6134 64.4625 74.6358 64.4309 74.6502 64.3955C74.6645 64.3601 74.6703 64.3218 74.6671 64.2837C74.6639 64.2456 74.6518 64.2088 74.6318 64.1763C74.6118 64.1437 74.5844 64.1163 74.5519 64.0963C74.5156 64.0738 74.4868 64.0411 74.469 64.0023C74.4513 63.9634 74.4454 63.9202 74.4521 63.8781C74.5184 63.5852 74.314 63.3315 74.3326 63.0456C74.1589 62.9442 74.4541 62.8168 74.3187 62.7239C74.1575 62.6132 74.4511 62.5129 74.3109 62.3943C74.1744 62.2788 74.2978 62.0899 74.2355 61.9616C74.1879 61.8667 74.1729 61.7586 74.1929 61.6543C74.2718 61.2832 74.0526 60.9273 74.1471 60.5661C74.1848 60.422 73.899 60.3637 74.0826 60.2111C74.1966 60.1163 74.1181 59.9848 74.1403 59.8722C74.1433 59.7388 74.1564 59.6058 74.1795 59.4744C74.2236 59.3437 74.1304 59.173 74.1464 59.0251C74.1765 58.7449 74.0327 58.4435 74.2412 58.1844C74.0401 57.944 74.1628 57.6608 74.1462 57.3983C74.1317 57.1696 74.0628 56.9081 74.3264 56.7495C74.3341 56.5042 74.4135 56.2664 74.5547 56.0657C74.5628 56.0539 74.5546 56.0317 74.5559 56.0145C74.5693 55.8361 74.2913 55.6496 74.56 55.4815C74.7383 55.37 74.7176 55.1551 74.8225 55.0206C75.0488 54.759 75.3536 54.5775 75.6915 54.5033C75.8716 54.4897 76.0495 54.4554 76.2218 54.4013C76.4468 54.2871 76.6628 54.5151 76.8979 54.5017C77.245 54.8019 77.706 54.9147 78.0568 55.2166C78.2201 55.3998 78.4222 55.5443 78.6484 55.6395C78.7284 55.6624 78.6905 55.7576 78.7257 55.8084C78.8538 55.9931 78.9375 56.2024 79.1902 56.2931C79.268 56.3285 79.3342 56.3853 79.3809 56.4569C79.4276 56.5285 79.453 56.6119 79.4541 56.6973C79.4626 56.8017 79.4955 57.0069 79.5697 57.0463C79.7097 57.1207 79.7184 57.2031 79.761 57.3344C79.8002 57.557 79.8609 57.7751 79.9423 57.9859C80.0385 58.1637 79.8664 58.4235 80.0549 58.6141C80.0676 58.6367 80.0743 58.6622 80.0743 58.6882C80.0743 58.7142 80.0676 58.7397 80.0549 58.7623C79.866 58.9374 80.0008 59.127 80.0932 59.2302C80.1958 59.3448 80.02 59.4004 80.0947 59.4595C80.1783 59.5256 80.1621 59.6089 80.1621 59.6924C80.1624 60.1938 80.1639 60.6953 80.1609 61.1967C80.1735 61.2969 80.15 61.3982 80.0948 61.4827C80.0549 61.5487 80.0324 61.6236 80.0294 61.7006C80.0263 61.7776 80.0428 61.8541 80.0773 61.923C80.1367 62.0423 80.1699 62.1729 80.1745 62.3061C80.1792 62.4393 80.1551 62.572 80.1041 62.6951C80.0597 62.8247 80.1997 62.8739 80.1756 62.9984C80.1609 63.0739 79.9824 63.1166 80.1234 63.2409C80.2 63.3085 79.9511 63.4128 80.1043 63.5222C80.0697 63.8723 80.0519 64.2254 79.9901 64.5706C79.9685 64.667 79.9578 64.7656 79.958 64.8645C79.9936 65.2187 79.9373 65.5761 79.7944 65.9021C79.6356 66.1256 79.7041 66.3646 79.6589 66.5898C79.6104 66.7621 79.5736 66.9375 79.5487 67.1148C79.5259 67.2758 79.4716 67.4307 79.389 67.5707C79.3756 67.6 79.3282 67.6361 79.335 67.649C79.5071 67.9781 79.207 68.244 79.215 68.5595C79.2222 68.8441 78.9794 69.0952 79.0113 69.4032C78.8507 69.517 78.9188 69.6867 78.921 69.8306C78.9324 69.9467 78.9165 70.0638 78.8746 70.1726C78.8326 70.2813 78.7658 70.3788 78.6794 70.4571C78.6097 70.5064 78.5558 70.5748 78.5239 70.6541C78.4921 70.7333 78.4838 70.82 78.5 70.9038C78.4054 71.1413 78.2945 71.3719 78.168 71.5941C77.9574 71.6416 77.9387 71.8239 77.8747 71.984C77.7894 72.1911 77.6928 72.3935 77.5854 72.5901C77.537 72.6816 77.6222 72.8004 77.5078 72.8774Z" fill="#FF4747"/>
<path d="M80.5781 83.3586C80.2999 83.4681 80.0417 83.7196 79.7142 83.481C79.4116 83.7306 79.1229 83.3178 78.8225 83.4624C78.5774 83.3424 78.2822 83.4061 78.0462 83.1907C77.8853 83.0886 77.7083 83.0146 77.5226 82.9719C77.3816 82.921 77.3934 82.7834 77.311 82.7518C77.1941 82.7253 77.0733 82.7202 76.9545 82.7368C76.8638 82.7383 76.8591 82.6836 76.8343 82.614C76.8063 82.534 76.7506 82.4667 76.6772 82.4242C76.5905 82.3858 76.5137 82.328 76.4526 82.2554C76.3916 82.1828 76.3479 82.0971 76.325 82.0051C76.3095 81.9469 76.2914 81.9177 76.2364 81.9048C75.9142 81.8291 75.8551 81.5146 75.8242 81.2935C75.7436 81.0196 75.6798 80.741 75.6332 80.4593C75.5965 80.2657 75.5938 80.0673 75.6251 79.8728C75.6702 79.7679 75.6945 79.6552 75.6965 79.541C75.6857 79.2125 75.9513 79.0341 76.103 78.796C76.1202 78.769 76.2119 78.7374 76.2619 78.6944C76.4141 78.5612 76.5979 78.4693 76.7958 78.4274C76.9937 78.3856 77.1991 78.3952 77.3922 78.4555C77.5089 78.4761 77.6276 78.4836 77.746 78.4781C77.9009 78.4927 78.057 78.4909 78.2115 78.4725C78.3674 78.4416 78.4357 78.6481 78.5841 78.5815C78.7144 78.523 78.838 78.7551 78.9664 78.5852C78.9775 78.5969 78.9899 78.6074 79.0033 78.6165C79.2083 78.7212 79.4236 78.8046 79.6457 78.8654C79.9861 78.9404 80.2905 79.1294 80.5088 79.4011C80.6318 79.5766 80.842 79.6188 80.9867 79.7611C81.0889 79.8616 81.359 79.8696 81.1017 80.0948C81.0669 80.1253 81.0832 80.2308 81.1809 80.2437C81.3788 80.27 81.3779 80.4133 81.4177 80.5717C81.5472 80.9132 81.5453 81.2905 81.4125 81.6307C81.3967 81.6982 81.3955 81.7683 81.4091 81.8363C81.4322 81.9682 81.4258 82.1037 81.3905 82.2329C81.3551 82.3621 81.2917 82.4818 81.2046 82.5837C81.1787 82.609 81.2011 82.6838 81.2011 82.7356C80.9524 82.8978 80.7403 83.1099 80.5781 83.3586Z" fill="#FF4747"/>
</svg>
